<svg width="128" height="128" viewBox="0 0 128 128" xmlns="http://www.w3.org/2000/svg">
  <defs>
    <linearGradient id="bg-gradient" x1="0%" y1="0%" x2="100%" y2="100%">
      <stop offset="0%" style="stop-color:#667eea;stop-opacity:1" />
      <stop offset="100%" style="stop-color:#764ba2;stop-opacity:1" />
    </linearGradient>
  </defs>

  <!-- 背景圆形 -->
  <circle cx="64" cy="64" r="60" fill="url(#bg-gradient)"/>

  <!-- 电影胶片图标 -->
  <rect x="20" y="30" width="88" height="68" rx="4" fill="white" opacity="0.9"/>

  <!-- 胶片孔洞 -->
  <rect x="26" y="36" width="6" height="6" rx="1" fill="#667eea"/>
  <rect x="38" y="36" width="6" height="6" rx="1" fill="#667eea"/>
  <rect x="50" y="36" width="6" height="6" rx="1" fill="#667eea"/>
  <rect x="62" y="36" width="6" height="6" rx="1" fill="#667eea"/>
  <rect x="74" y="36" width="6" height="6" rx="1" fill="#667eea"/>
  <rect x="86" y="36" width="6" height="6" rx="1" fill="#667eea"/>
  <rect x="98" y="36" width="6" height="6" rx="1" fill="#667eea"/>

  <rect x="26" y="86" width="6" height="6" rx="1" fill="#667eea"/>
  <rect x="38" y="86" width="6" height="6" rx="1" fill="#667eea"/>
  <rect x="50" y="86" width="6" height="6" rx="1" fill="#667eea"/>
  <rect x="62" y="86" width="6" height="6" rx="1" fill="#667eea"/>
  <rect x="74" y="86" width="6" height="6" rx="1" fill="#667eea"/>
  <rect x="86" y="86" width="6" height="6" rx="1" fill="#667eea"/>
  <rect x="98" y="86" width="6" height="6" rx="1" fill="#667eea"/>

  <!-- 中心播放按钮 -->
  <circle cx="64" cy="64" r="16" fill="url(#bg-gradient)"/>
  <polygon points="58,56 58,72 74,64" fill="white"/>

  <!-- 分析图标 -->
  <text x="64" y="108" text-anchor="middle" fill="white" font-family="Arial" font-size="10" font-weight="bold">AI</text>
</svg>